<?xml version="1.0" encoding="UTF-8" standalone="no"?>
<!-- Created with Inkscape (http://www.inkscape.org/) -->

<svg
   width="210mm"
   height="297mm"
   viewBox="0 0 210 297"
   version="1.1"
   id="svg978"
   xml:space="preserve"
   inkscape:version="1.2.2 (b0a8486541, 2022-12-01)"
   sodipodi:docname="fondo-pd-2025.svg"
   inkscape:export-filename="fondo-pd-2025.png"
   inkscape:export-xdpi="300"
   inkscape:export-ydpi="300"
   xmlns:inkscape="http://www.inkscape.org/namespaces/inkscape"
   xmlns:sodipodi="http://sodipodi.sourceforge.net/DTD/sodipodi-0.dtd"
   xmlns="http://www.w3.org/2000/svg"
   xmlns:svg="http://www.w3.org/2000/svg"><sodipodi:namedview
     id="namedview980"
     pagecolor="#ffffff"
     bordercolor="#000000"
     borderopacity="0.25"
     inkscape:showpageshadow="2"
     inkscape:pageopacity="0.0"
     inkscape:pagecheckerboard="0"
     inkscape:deskcolor="#d1d1d1"
     inkscape:document-units="mm"
     showgrid="false"
     inkscape:zoom="1.3440751"
     inkscape:cx="348.56682"
     inkscape:cy="156.24127"
     inkscape:window-width="1920"
     inkscape:window-height="998"
     inkscape:window-x="0"
     inkscape:window-y="101"
     inkscape:window-maximized="1"
     inkscape:current-layer="layer1" /><defs
     id="defs975"><clipPath
       clipPathUnits="userSpaceOnUse"
       id="clipPath37"><path
         d="M 0,69.351 H 340.672 V 0 H 0 Z"
         id="path35" /></clipPath></defs><g
     inkscape:label="Capa 1"
     inkscape:groupmode="layer"
     id="layer1"><g
       id="g1401"
       transform="matrix(0.73641415,0,0,0.73641415,-46.281195,3.7589093)"><text
         xml:space="preserve"
         style="font-variant:normal;font-weight:500;font-stretch:normal;font-size:3.88059px;font-family:'Noto Sans HK Medium';-inkscape-font-specification:NotoSansHK-Medium;writing-mode:lr-tb;fill:#231f20;fill-opacity:1;fill-rule:nonzero;stroke:none;stroke-width:0.352778"
         id="text25"
         x="155.49863"
         y="9.5447626"><tspan
           sodipodi:role="line"
           id="tspan23"
           x="155.49863"
           y="9.5447626"
           style="stroke-width:0.352778">Consejería de Desarrollo</tspan><tspan
           sodipodi:role="line"
           x="155.49863"
           y="14.764641"
           id="tspan1088"
           style="stroke-width:0.352778">Educativo y Formación </tspan><tspan
           sodipodi:role="line"
           x="155.49863"
           y="19.984518"
           id="tspan1090"
           style="stroke-width:0.352778">Profesional</tspan></text><g
         id="g27"
         transform="matrix(0.35277777,0,0,-0.35277777,152.73824,6.0751577)"><path
           d="M 0,0 V -38.51"
           style="fill:none;stroke:#262220;stroke-width:0.692;stroke-linecap:butt;stroke-linejoin:miter;stroke-miterlimit:10;stroke-dasharray:none;stroke-opacity:1"
           id="path29" /></g><g
         id="g31"
         transform="matrix(0.35277777,0,0,-0.35277777,90.256433,25.100569)"><g
           id="g33"
           clip-path="url(#clipPath37)"><g
             id="g39"
             transform="translate(62.2114,39.5162)"><path
               d="m 0,0 1.635,1.212 c 0.466,-0.873 1.098,-1.246 1.776,-1.246 1.053,0 1.603,0.567 1.603,2.216 v 7.926 H 7.406 V 1.988 C 7.406,-0.259 6.275,-2.104 3.704,-2.104 1.956,-2.104 0.794,-1.391 0,0"
               style="fill:#262220;fill-opacity:1;fill-rule:nonzero;stroke:none"
               id="path41" /></g><g
             id="g43"
             transform="translate(72.0611,41.0372)"><path
               d="M 0,0 V 5.659 H 2.376 V 0.306 c 0,-1.391 0.389,-1.893 1.26,-1.893 0.746,0 1.23,0.324 1.843,1.132 V 5.659 H 7.857 V -3.397 H 5.918 L 5.739,-2.105 H 5.676 C 4.899,-3.025 4.025,-3.625 2.797,-3.625 0.841,-3.625 0,-2.266 0,0"
               style="fill:#262220;fill-opacity:1;fill-rule:nonzero;stroke:none"
               id="path45" /></g><g
             id="g47"
             transform="translate(82.312,46.6959)"><path
               d="m 0,0 h 1.939 l 0.179,-1.196 h 0.049 c 0.792,0.776 1.715,1.422 2.943,1.422 1.957,0 2.798,-1.358 2.798,-3.637 V -9.056 H 5.531 v 5.352 c 0,1.408 -0.388,1.893 -1.277,1.893 -0.745,0 -1.214,-0.356 -1.877,-1.02 V -9.056 H 0 Z"
               style="fill:#262220;fill-opacity:1;fill-rule:nonzero;stroke:none"
               id="path49" /></g><g
             id="g51"
             transform="translate(92.8726,40.8101)"><path
               d="M 0,0 V 4.01 H -1.278 V 5.772 L 0.128,5.886 0.405,8.329 H 2.376 V 5.886 H 4.608 V 4.01 H 2.376 V 0 c 0,-1.036 0.423,-1.521 1.229,-1.521 0.291,0 0.648,0.098 0.888,0.193 l 0.391,-1.73 C 4.397,-3.218 3.769,-3.397 2.975,-3.397 0.825,-3.397 0,-2.022 0,0"
               style="fill:#262220;fill-opacity:1;fill-rule:nonzero;stroke:none"
               id="path53" /></g><g
             id="g55"
             transform="translate(103.562,40.1627)"><path
               d="m 0,0 v 1.828 c -2.216,-0.276 -2.961,-0.891 -2.961,-1.7 0,-0.711 0.504,-1.018 1.198,-1.018 0.678,0 1.181,0.323 1.763,0.89 m -5.225,-0.064 c 0,1.939 1.569,2.959 5.225,3.347 -0.049,0.89 -0.437,1.569 -1.553,1.569 -0.84,0 -1.649,-0.373 -2.49,-0.856 l -0.858,1.567 c 1.068,0.664 2.362,1.196 3.785,1.196 2.295,0 3.475,-1.373 3.475,-3.992 v -5.29 H 0.421 L 0.259,-1.552 H 0.193 c -0.792,-0.679 -1.699,-1.198 -2.732,-1.198 -1.617,0 -2.686,1.148 -2.686,2.686"
               style="fill:#262220;fill-opacity:1;fill-rule:nonzero;stroke:none"
               id="path57" /></g><g
             id="g59"
             transform="translate(68.2105,23.5816)"><path
               d="m 0,0 v 3.977 c -0.551,0.502 -1.134,0.68 -1.699,0.68 -1.019,0 -1.876,-0.97 -1.876,-2.782 0,-1.875 0.679,-2.813 1.876,-2.813 0.631,0 1.166,0.257 1.699,0.938 m -6.018,1.86 c 0,2.941 1.843,4.752 3.802,4.752 1.019,0 1.65,-0.385 2.297,-0.985 L 0,7.05 v 3.186 H 2.36 V -2.669 H 0.435 L 0.258,-1.732 H 0.193 c -0.663,-0.646 -1.57,-1.164 -2.506,-1.164 -2.249,0 -3.705,1.78 -3.705,4.756"
               style="fill:#262220;fill-opacity:1;fill-rule:nonzero;stroke:none"
               id="path61" /></g><g
             id="g63"
             transform="translate(78.3794,26.3624)"><path
               d="M 0,0 C 0,1.213 -0.548,1.988 -1.714,1.988 -2.667,1.988 -3.508,1.31 -3.687,0 Z m -5.966,-0.92 c 0,2.925 2.07,4.752 4.222,4.752 2.489,0 3.783,-1.827 3.783,-4.317 0,-0.453 -0.049,-0.89 -0.113,-1.1 h -5.58 c 0.193,-1.488 1.164,-2.263 2.508,-2.263 0.743,0 1.39,0.226 2.037,0.629 l 0.808,-1.454 c -0.888,-0.617 -2.037,-1.004 -3.153,-1.004 -2.539,0 -4.512,1.763 -4.512,4.757"
               style="fill:#262220;fill-opacity:1;fill-rule:nonzero;stroke:none"
               id="path65" /></g><g
             id="g67"
             transform="translate(88.1968,25.8433)"><path
               d="M 0,0 H 2.846 L 2.491,1.312 C 2.118,2.557 1.796,3.93 1.454,5.226 H 1.375 C 1.067,3.915 0.711,2.557 0.355,1.312 Z M 0.049,7.053 H 2.865 L 6.712,-4.931 H 4.204 L 3.363,-1.86 h -3.88 l -0.842,-3.071 h -2.425 z"
               style="fill:#262220;fill-opacity:1;fill-rule:nonzero;stroke:none"
               id="path69" /></g><g
             id="g71"
             transform="translate(95.9732,29.9688)"><path
               d="m 0,0 h 1.942 l 0.179,-1.197 h 0.048 c 0.792,0.777 1.713,1.422 2.943,1.422 1.958,0 2.796,-1.357 2.796,-3.636 V -9.057 H 5.532 v 5.353 c 0,1.408 -0.387,1.892 -1.277,1.892 -0.743,0 -1.213,-0.355 -1.876,-1.019 V -9.057 H 0 Z"
               style="fill:#262220;fill-opacity:1;fill-rule:nonzero;stroke:none"
               id="path73" /></g><g
             id="g75"
             transform="translate(111.6948,23.5816)"><path
               d="m 0,0 v 3.977 c -0.551,0.502 -1.135,0.68 -1.7,0.68 -1.018,0 -1.875,-0.97 -1.875,-2.782 0,-1.875 0.679,-2.813 1.875,-2.813 0.632,0 1.165,0.257 1.7,0.938 m -6.018,1.86 c 0,2.941 1.844,4.752 3.8,4.752 1.02,0 1.651,-0.385 2.298,-0.985 L 0,7.05 v 3.186 H 2.36 V -2.669 H 0.434 L 0.258,-1.732 H 0.191 c -0.661,-0.646 -1.566,-1.164 -2.505,-1.164 -2.248,0 -3.704,1.78 -3.704,4.756"
               style="fill:#262220;fill-opacity:1;fill-rule:nonzero;stroke:none"
               id="path77" /></g><g
             id="g79"
             transform="translate(121.2349,23.4351)"><path
               d="m 0,0 v 1.828 c -2.217,-0.276 -2.96,-0.891 -2.96,-1.7 0,-0.711 0.5,-1.018 1.196,-1.018 0.68,0 1.181,0.323 1.764,0.89 m -5.224,-0.064 c 0,1.939 1.569,2.959 5.224,3.347 -0.05,0.89 -0.435,1.569 -1.552,1.569 -0.843,0 -1.65,-0.373 -2.491,-0.856 l -0.858,1.567 c 1.067,0.664 2.361,1.196 3.786,1.196 2.296,0 3.474,-1.373 3.474,-3.992 v -5.29 H 0.42 L 0.259,-1.552 H 0.193 C -0.599,-2.231 -1.505,-2.75 -2.54,-2.75 c -1.616,0 -2.684,1.148 -2.684,2.686"
               style="fill:#262220;fill-opacity:1;fill-rule:nonzero;stroke:none"
               id="path81" /></g><g
             id="g83"
             transform="translate(125.8736,23.4508)"><path
               d="M 0,0 V 10.367 H 2.379 V -0.097 c 0,-0.55 0.244,-0.728 0.469,-0.728 0.098,0 0.162,0 0.323,0.033 L 3.463,-2.556 C 3.187,-2.668 2.8,-2.765 2.233,-2.765 0.584,-2.765 0,-1.682 0,0"
               style="fill:#262220;fill-opacity:1;fill-rule:nonzero;stroke:none"
               id="path85" /></g><g
             id="g87"
             transform="translate(130.7271,24.3096)"><path
               d="M 0,0 V 5.659 H 2.375 V 0.306 c 0,-1.391 0.391,-1.893 1.263,-1.893 0.745,0 1.228,0.324 1.844,1.132 V 5.659 H 7.858 V -3.397 H 5.92 L 5.741,-2.105 H 5.677 C 4.899,-3.025 4.026,-3.624 2.796,-3.624 0.84,-3.624 0,-2.266 0,0"
               style="fill:#262220;fill-opacity:1;fill-rule:nonzero;stroke:none"
               id="path89" /></g><g
             id="g91"
             transform="translate(140.4126,25.442)"><path
               d="M 0,0 C 0,3.007 2.168,4.752 4.625,4.752 5.741,4.752 6.6,4.316 7.262,3.75 L 6.131,2.213 C 5.677,2.602 5.256,2.812 4.757,2.812 3.363,2.812 2.427,1.696 2.427,0 c 0,-1.716 0.954,-2.816 2.248,-2.816 0.646,0 1.261,0.306 1.762,0.728 L 7.392,-3.657 C 6.517,-4.417 5.418,-4.756 4.416,-4.756 1.909,-4.756 0,-3.01 0,0"
               style="fill:#262220;fill-opacity:1;fill-rule:nonzero;stroke:none"
               id="path93" /></g><g
             id="g95"
             transform="translate(149.437,32.5723)"><path
               d="M 0,0 2.749,3.281 4.381,1.698 1.18,-1.149 Z m -0.082,-2.604 h 2.378 v -9.057 h -2.378 z"
               style="fill:#262220;fill-opacity:1;fill-rule:nonzero;stroke:none"
               id="path97" /></g><g
             id="g99"
             transform="translate(158.897,23.4351)"><path
               d="m 0,0 v 1.828 c -2.215,-0.276 -2.96,-0.891 -2.96,-1.7 0,-0.711 0.501,-1.018 1.196,-1.018 0.68,0 1.182,0.323 1.764,0.89 m -5.225,-0.064 c 0,1.939 1.569,2.959 5.225,3.347 -0.048,0.89 -0.437,1.569 -1.553,1.569 -0.842,0 -1.649,-0.373 -2.489,-0.856 L -4.9,5.563 c 1.067,0.664 2.36,1.196 3.784,1.196 2.296,0 3.476,-1.373 3.476,-3.992 v -5.29 H 0.42 L 0.26,-1.552 H 0.195 c -0.794,-0.679 -1.7,-1.198 -2.735,-1.198 -1.615,0 -2.685,1.148 -2.685,2.686"
               style="fill:#262220;fill-opacity:1;fill-rule:nonzero;stroke:none"
               id="path101" /></g><g
             id="g103"
             transform="translate(33.5747,53.9303)"><path
               d="M 0,0 H 7.713 L 23.104,-38.51 H 15.343 Z"
               style="fill:#1d8241;fill-opacity:1;fill-rule:evenodd;stroke:none"
               id="path105" /></g><g
             id="g107"
             transform="translate(41.2876,53.9303)"><path
               d="m 0,0 h -7.713 l -18.154,-38.51 h 7.714 z"
               style="fill:#3b9c4b;fill-opacity:1;fill-rule:evenodd;stroke:none"
               id="path109" /></g><g
             id="g111"
             transform="translate(48.9175,15.4205)"><path
               d="m 0,0 h 7.761 c -4.182,6.262 -11.326,10.392 -19.437,10.392 -1.249,0 -2.472,-0.101 -3.665,-0.288 V 4.083 c 1.19,0.258 2.424,0.397 3.692,0.397 C -7.166,4.48 -3.078,2.784 0,0"
               style="fill:#3b9c4b;fill-opacity:1;fill-rule:evenodd;stroke:none"
               id="path113" /></g></g></g></g></g></svg>
